<svg xmlns="http://www.w3.org/2000/svg" xmlns:xlink="http://www.w3.org/1999/xlink" width="125.984" height="120" viewBox="0 0 125.984 120">
  <defs>
    <linearGradient id="linear-gradient" x1="0.5" x2="0.5" y2="1" gradientUnits="objectBoundingBox">
      <stop offset="0" stop-color="#f6ae42"/>
      <stop offset="1" stop-color="#f67242"/>
    </linearGradient>
    <filter id="Path_8" x="0" y="0" width="125.984" height="120" filterUnits="userSpaceOnUse">
      <feOffset dy="10" input="SourceAlpha"/>
      <feGaussianBlur stdDeviation="8" result="blur"/>
      <feFlood flood-color="#d9440e" flood-opacity="0.247"/>
      <feComposite operator="in" in2="blur"/>
      <feComposite in="SourceGraphic"/>
    </filter>
  </defs>
  <g id="maintenance" transform="translate(12.533 -3.2)">
    <g transform="matrix(1, 0, 0, 1, -12.53, 3.2)" filter="url(#Path_8)">
      <path id="Path_8-2" data-name="Path 8" d="M17.466,17.2l-6,6,6,12,9,3,10.5,10.5,6-6-10.5-10.5-3-9Zm54.2.029a18.437,18.437,0,0,0-13.81,5.4c-4.908,4.908-5.347,10.811-2.906,16.365L20.1,73.835A9,9,0,0,0,32.829,86.561L67.674,51.717c5.553,2.44,11.457,2,16.365-2.912A18.488,18.488,0,0,0,88.574,30.09L77.459,41.211l-9.6-2.4-2.4-9.6L76.574,18.091a18.648,18.648,0,0,0-4.91-.861ZM67.03,61.109,55.739,72.4,70.194,86.86a7.988,7.988,0,0,0,11.3-11.3ZM26.466,77.2a3,3,0,1,1-3,3A3,3,0,0,1,26.466,77.2Z" transform="translate(12.53 -3.2)" fill="url(#linear-gradient)"/>
    </g>
  </g>
</svg>
